<?xml version="1.0" standalone="no"?>
<!DOCTYPE svg PUBLIC "-//W3C//DTD SVG 20010904//EN"
 "http://www.w3.org/TR/2001/REC-SVG-20010904/DTD/svg10.dtd">
<svg version="1.0" xmlns="http://www.w3.org/2000/svg"
 width="700.000000pt" height="700.000000pt" viewBox="0 0 700.000000 700.000000"
 preserveAspectRatio="xMidYMid meet">
<metadata>
Created by potrace 1.14, written by Peter Selinger 2001-2017
</metadata>
<g transform="translate(0.000000,700.000000) scale(0.100000,-0.100000)"
fill="#000000" stroke="none">
<path d="M3204 6722 c-6 -5 -10 -1035 -10 -2785 -1 -1528 -4 -2780 -6 -2783
-3 -3 -185 -7 -404 -10 -220 -3 -514 -7 -654 -9 -140 -2 -351 -4 -468 -4
l-213 -1 3 -310 c3 -267 5 -310 18 -311 54 -4 4090 -3 4091 1 1 3 2 143 3 313
l2 307 -166 0 c-91 1 -298 3 -460 5 -162 2 -479 7 -704 9 -225 3 -412 8 -415
12 -3 3 -7 1255 -7 2782 -1 1527 -2 2780 -3 2783 -1 9 -595 9 -607 1z"/>
<path d="M2395 5737 c-124 -111 -146 -132 -265 -237 -52 -46 -97 -87 -100 -90
-3 -3 -43 -39 -90 -80 -46 -41 -91 -82 -100 -90 -15 -14 -136 -121 -178 -159
-22 -19 -170 -151 -186 -166 -6 -6 -96 -87 -201 -180 -104 -93 -192 -172 -195
-175 -3 -3 -41 -37 -84 -75 -44 -39 -87 -77 -96 -85 -27 -24 -114 -102 -151
-135 -19 -17 -59 -53 -89 -80 -31 -28 -91 -81 -134 -120 -91 -80 -86 -76 -148
-132 l-47 -42 137 -123 c75 -68 142 -127 148 -133 6 -5 46 -41 89 -80 44 -38
89 -79 101 -90 12 -11 37 -33 55 -49 71 -62 225 -200 240 -215 9 -9 31 -29 50
-45 62 -54 194 -171 209 -186 8 -8 53 -49 100 -90 47 -41 87 -77 90 -80 3 -3
46 -41 95 -84 50 -44 95 -85 100 -90 6 -6 48 -45 95 -86 47 -41 87 -77 90 -80
3 -3 43 -39 90 -80 47 -41 87 -77 90 -80 6 -6 173 -155 224 -201 21 -19 44
-39 51 -46 34 -33 107 -93 113 -93 4 0 6 156 6 346 l-1 346 -24 22 c-13 11
-87 77 -164 145 -77 68 -156 138 -175 155 -41 37 -224 201 -323 290 -38 34
-79 70 -91 81 -12 11 -58 52 -101 90 -43 39 -83 75 -89 80 -6 6 -54 48 -106
95 -52 46 -100 89 -106 95 -6 5 -46 42 -90 80 -131 117 -123 103 -83 138 19
16 50 44 69 61 19 17 73 65 120 106 47 41 92 82 100 90 8 8 53 49 100 90 134
119 150 133 185 165 27 26 121 109 189 168 12 10 37 33 56 51 43 40 123 111
219 196 40 36 83 74 95 85 42 38 179 160 199 177 19 17 20 31 20 363 0 190 -2
347 -4 349 -2 2 -49 -37 -104 -87z"/>
<path d="M4499 5798 c0 -18 0 -177 -1 -352 0 -291 1 -321 17 -332 9 -7 36 -30
59 -51 22 -21 79 -72 126 -113 47 -41 97 -86 111 -100 15 -14 55 -50 89 -80
35 -30 68 -59 74 -65 6 -5 52 -46 101 -90 50 -44 92 -83 95 -86 3 -3 48 -43
100 -89 52 -46 100 -88 106 -94 6 -6 46 -42 89 -81 43 -38 83 -74 89 -80 6 -5
49 -44 96 -85 47 -41 101 -89 120 -107 19 -17 53 -47 75 -66 l40 -36 -32 -29
c-18 -16 -50 -44 -70 -62 -90 -80 -218 -195 -223 -200 -3 -3 -43 -39 -90 -80
-47 -41 -87 -77 -90 -80 -3 -3 -68 -61 -145 -129 -77 -69 -147 -132 -156 -140
-9 -9 -31 -29 -50 -46 -79 -70 -374 -333 -438 -392 -25 -22 -57 -50 -70 -60
l-23 -19 0 -335 c0 -184 1 -342 1 -352 1 -19 12 -11 90 64 9 8 99 89 201 179
102 91 187 167 190 170 3 3 86 77 185 165 98 88 186 167 195 175 9 8 47 42 85
75 37 33 73 65 79 70 6 6 56 51 111 100 55 49 102 92 105 95 3 3 43 39 90 80
47 41 87 77 90 80 3 3 86 77 185 165 99 88 189 169 201 180 11 11 51 47 89 80
38 33 76 67 85 75 9 8 53 48 98 89 45 40 82 78 81 85 0 6 -94 93 -207 194
-114 100 -227 201 -252 223 -25 22 -63 56 -85 76 -22 19 -74 66 -115 103 -41
37 -140 125 -220 196 -80 71 -152 136 -160 144 -8 8 -33 30 -55 49 -22 19 -80
70 -129 115 -49 44 -98 89 -110 99 -11 10 -34 31 -51 45 -16 15 -95 85 -175
157 -80 71 -147 131 -150 134 -3 3 -61 55 -130 116 -69 60 -132 116 -140 125
-8 8 -52 48 -98 88 l-82 74 -1 -34z"/>
</g>
</svg>
