<svg width="256" height="256" viewBox="0 0 256 256" fill="none" xmlns="http://www.w3.org/2000/svg">
<path d="M121.958 0.866577C116.639 2.30095 113.173 4.63181 102.116 14.3138C90.0433 24.8923 88.9078 25.7291 83.4094 27.6416C79.8832 28.8967 78.0902 29.0162 63.3879 29.315C47.4304 29.6736 47.1914 29.6736 43.7847 31.2873C37.0312 34.4548 31.1742 41.7463 29.6801 48.9779C29.3215 50.7709 29.0226 58.122 29.0226 65.7123C28.9629 85.0166 29.0824 84.8373 13.8422 102.588C8.70232 108.564 4.39919 114.242 3.32341 116.334C-0.382056 123.685 -0.382056 132.291 3.32341 139.583C4.39919 141.734 8.70232 147.352 13.8422 153.388C24.4207 165.7 25.7953 167.672 27.5883 172.753C28.9031 176.458 29.0226 177.594 29.0226 190.264C29.0226 197.974 29.3215 205.205 29.6801 206.998C31.234 214.29 36.5531 221.103 43.3066 224.39L47.2511 226.303L63.6867 226.661C86.2781 227.079 84.1863 226.243 103.67 242.977C110.005 248.356 115.324 252.42 117.296 253.317C124.289 256.544 132.895 256.484 139.768 253.197C141.561 252.36 147.837 247.46 154.71 241.543C166.185 231.681 169.532 229.351 174.552 227.797C176.046 227.319 182.979 226.9 193.079 226.661C209.216 226.303 209.216 226.303 212.623 224.629C217.105 222.418 222.006 217.935 224.038 214.11C226.787 209.15 227.445 204.428 227.445 190.085C227.445 176.697 227.863 173.649 230.433 168.629C231.03 167.493 236.111 161.158 241.729 154.584C247.346 148.01 252.666 141.256 253.502 139.523C256.789 132.889 256.789 123.386 253.502 116.633C252.546 114.66 247.825 108.564 241.788 101.512C231.927 90.0369 229.596 86.6302 228.042 81.6697C227.564 80.1756 227.146 73.0634 226.907 63.1423L226.548 47.0056L224.755 43.4197C222.544 38.8177 217.404 33.6779 212.802 31.4666L209.216 29.6736L193.079 29.315C182.979 29.0759 176.046 28.6576 174.552 28.1795C169.651 26.6853 166.185 24.3545 156.144 15.7482C142.159 3.73532 141.442 3.19743 137.796 1.82281C133.732 0.268921 126.022 -0.149445 121.958 0.866577ZM178.018 88.7818C180.588 89.8576 183.098 92.8459 183.577 95.4756C184.413 100.137 184.174 100.496 149.928 134.682C122.078 162.473 117.416 166.836 115.264 167.493C110.364 168.928 109.886 168.509 91.0593 149.683C76.8351 135.399 73.8469 132.052 73.309 130.08C72.0539 125.299 74.9824 120.338 79.9429 118.963C84.4254 117.768 85.9793 118.904 99.8449 132.769C106.718 139.642 112.635 145.32 112.993 145.32C113.352 145.32 126.082 132.769 141.382 117.469C156.682 102.169 170.01 89.2599 170.966 88.7818C173.297 87.7658 175.568 87.7658 178.018 88.7818Z" fill="white"/>
</svg>
