<svg width="285" height="284" viewBox="0 0 285 284" fill="none" xmlns="http://www.w3.org/2000/svg">
<path d="M36.6766 54.1277C35.1789 54.5714 34.0696 55.1816 34.1805 55.4035C34.2914 55.7363 120.323 128.4 136.576 141.879C140.459 145.041 142.455 145.54 145.118 143.765C147.17 142.489 250.065 56.0136 250.287 55.4035C250.398 55.1816 249.177 54.5714 247.569 54.1277C244.962 53.3511 233.369 53.2402 142.012 53.2957C52.9844 53.2957 39.0063 53.4066 36.6766 54.1277Z" fill="white"/>
<path d="M19.5365 70.2691L18.2608 73.4863L18.0944 141.158C17.9834 201.619 18.0389 209.107 18.8709 211.881C21.2006 220.09 28.1342 227.135 36.3436 229.686C39.6162 230.685 43.1662 230.74 142.233 230.74C241.301 230.74 244.851 230.685 248.123 229.686C256.333 227.135 263.266 220.09 265.596 211.825C266.428 209.107 266.483 201.619 266.372 140.825L266.206 72.9316L264.819 69.9363L263.433 66.941L255.944 73.2645C251.84 76.759 227.378 97.2824 201.585 118.915C150.665 161.571 150.997 161.293 143.897 161.848C139.571 162.125 133.802 160.683 130.474 158.464C128.755 157.3 53.6498 94.509 30.7412 75.1504C26.0264 71.1566 21.8662 67.7176 21.478 67.4957C21.0897 67.2184 20.3686 68.2168 19.5365 70.2691Z" fill="white"/>
</svg>
