<svg width="345" height="344" viewBox="0 0 345 344" fill="none" xmlns="http://www.w3.org/2000/svg">
<g clip-path="url(#clip0_2335_8922)">
<path d="M21.8528 114.028C19.0799 116.991 17.0921 122.395 17.3537 126.387C17.3968 127.838 17.9625 130.292 18.5672 131.93C19.2703 133.737 25.9076 145.626 35.7379 162.653L51.786 190.449L66.6844 181.848L81.6253 173.221L64.0979 143.158L46.595 113.137L44.302 111.623C41.0673 109.461 35.6599 108.156 32.1509 108.763C29.1414 109.252 23.7157 112.044 21.8528 114.028Z" fill="white"/>
<path d="M50.9281 99.1144C52.0713 99.8165 54.1874 101.319 55.6255 102.532L58.202 104.734L113.956 200.812C164.747 288.291 169.894 297.011 171.565 298.43C180.316 305.92 190.197 306.913 199.817 301.358C209.778 295.608 214.027 284.584 210.492 273.742C209.979 272.165 206.438 265.639 200.957 256.147L192.233 241.036L232.246 217.935L272.258 194.833L256.161 166.952C247.314 151.628 239.936 139.144 239.723 139.267C239.553 139.366 236.799 149.242 233.578 161.261L227.731 183.082L195.083 201.932L162.391 220.806L158.705 214.421L155.019 208.036L172.258 198.083L189.498 188.13L184.632 179.701L179.79 171.316L183.029 159.23C184.81 152.583 186.193 147.017 186.095 146.846C185.972 146.634 174.405 153.141 160.358 161.251L134.818 175.997L131.255 169.825L127.691 163.653L159.659 145.196L191.626 126.74L198.323 102.555L205.086 78.3885L195.619 62.2868L186.153 46.1852L182.995 43.468C177.12 38.4035 169.871 35.7776 162.447 36.0911C155.108 36.3555 158.441 34.658 100.848 67.9092L48.8318 97.941L50.9281 99.1144ZM181.039 82.056L184.602 88.2281L146.931 109.978L109.259 131.728L105.696 125.555L102.132 119.383L139.804 97.6335L177.475 75.8838L181.039 82.056Z" fill="white"/>
<path d="M221.26 71.6036L219.102 79.6607L229.374 82.4133L239.58 85.1479L241.739 77.0908L243.898 69.0337L233.625 66.2811L223.419 63.5464L221.26 71.6036Z" fill="white"/>
<path d="M205.195 131.562L195.084 169.296L198.475 175.17L201.842 181.002L208.78 176.996L215.676 173.015L225.65 135.927L235.623 98.8401L225.686 96.1775C220.248 94.7202 215.664 93.564 215.536 93.6377C215.408 93.7114 210.772 110.748 205.195 131.562Z" fill="white"/>
<path d="M217.935 257.243C222.508 265.557 223.966 268.574 224.568 270.894C225.493 274.56 225.986 279.838 225.733 283.332C225.666 284.79 225.611 286.07 225.685 286.198C225.734 286.283 245.722 274.8 270.131 260.65L314.412 234.915L316.823 231.423C319.597 227.38 321.292 221.862 321.132 217.357C320.956 212.237 319.963 209.632 314.237 199.714L309.002 190.647L260.519 218.639L212.035 246.631L217.935 257.243Z" fill="white"/>
</g>
<defs>
<clipPath id="clip0_2335_8922">
<rect width="251.658" height="251.658" fill="white" transform="translate(0.348022 125.934) rotate(-30)"/>
</clipPath>
</defs>
</svg>
